<?xml version="1.0" encoding="iso-8859-1"?>
<svg xmlns="http://www.w3.org/2000/svg" xmlns:xlink="http://www.w3.org/1999/xlink" version="1.1" id="Layer_1" x="0px" y="0px" viewBox="0 0 512 512" style="enable-background:new 0 0 512 512;" xml:space="preserve" width="512px" height="512px">
<g>
	<g>
		<path d="M381.621,65.523h-53.943V54.004C327.678,24.226,303.451,0,273.673,0h-35.346c-29.778,0-54.005,24.226-54.005,54.004    v11.519h-53.943c-34.76,0-63.04,28.28-63.04,63.04v15.975H444.66v-15.976C444.66,93.803,416.38,65.523,381.621,65.523z     M297.261,65.523H214.74V54.004c0-13.005,10.581-23.587,23.588-23.587h35.346c13.006,0,23.588,10.581,23.588,23.587V65.523z"/>
	</g>
</g>
<g>
	<g>
		<path d="M88.452,174.955v306.112c0,17.056,13.877,30.933,30.934,30.933h273.227c17.057,0,30.934-13.877,30.934-30.933V174.955    H88.452z M197.532,466.16h-30.417V220.795h30.417V466.16z M271.208,466.16h-30.417V220.795h30.417V466.16z M344.886,466.16    h-30.417V220.795h30.417V466.16z"/>
	</g>
</g>
</svg>
